<?xml version="1.0" encoding="UTF-8" standalone="no"?>
<svg
   xmlns:dc="http://purl.org/dc/elements/1.1/"
   xmlns:cc="http://creativecommons.org/ns#"
   xmlns:rdf="http://www.w3.org/1999/02/22-rdf-syntax-ns#"
   xmlns:svg="http://www.w3.org/2000/svg"
   xmlns="http://www.w3.org/2000/svg"
   id="svg8"
   version="1.1"
   viewBox="0 0 215.9 279.4"
   height="279.39999mm"
   width="215.89999mm">
  <defs
     id="defs2" />
  <metadata
     id="metadata5">
    <rdf:RDF>
      <cc:Work
         rdf:about="">
        <dc:format>image/svg+xml</dc:format>
        <dc:type
           rdf:resource="http://purl.org/dc/dcmitype/StillImage" />
        <dc:title></dc:title>
      </cc:Work>
    </rdf:RDF>
  </metadata>
  <g
     id="layer1">
    <path
       transform="scale(0.26458333)"
       d="M 78.347656 45.357422 C 59.792364 45.357422 44.855469 60.294317 44.855469 78.849609 L 44.855469 977.13086 C 44.855469 995.68615 59.792364 1010.625 78.347656 1010.625 L 747.38867 1010.625 C 765.94396 1010.625 780.88086 995.68615 780.88086 977.13086 L 780.88086 222.04297 L 637.68945 222.04297 C 619.13416 222.04297 604.19531 207.10412 604.19531 188.54883 L 604.19531 45.357422 L 78.347656 45.357422 z "
       style="fill:#ffffff;fill-opacity:1;stroke:#a1a1a1;stroke-width:30.23622085;stroke-miterlimit:4;stroke-dasharray:none;stroke-opacity:1"
       id="rect833-6" />
    <path
       transform="scale(0.26458333)"
       d="m 604.19531,45.357422 0.82031,33.49414 V 187.73047 c 10e-6,18.55529 14.9369,33.49219 33.49219,33.49219 h 108.87891 l 33.49414,0.82031 0,-8.75249 L 614.2248,45.357422 Z"
       style="fill:#a1a1a1;fill-opacity:1;stroke:#a1a1a1;stroke-width:30.2362;stroke-miterlimit:4;stroke-dasharray:none;stroke-opacity:1"
       id="rect902" />
    <g
       style="stroke-width:1.12828"
       transform="matrix(0.88630246,0,0,0.88630308,12.492037,18.860826)"
       id="g994">
      <path
         id="path2647"
         style="display:inline;fill:#f7f6cf;stroke-width:0.298524"
         d="m 34.739448,75.894075 c -7.16819,0 -12.93926,5.866571 -12.93926,13.153719 V 237.48525 c 0,7.28715 5.77107,13.15372 12.93926,13.15372 H 183.5748 c 7.1682,0 12.93875,-5.86657 12.93875,-13.15372 V 89.047794 c 0,-7.287148 -5.77055,-13.153719 -12.93875,-13.153719 z" />
      <path
         id="path2645"
         style="display:inline;fill:#fbcfad;stroke-width:0.298524"
         d="m 34.739448,75.894075 c -7.16819,0 -12.93926,5.866571 -12.93926,13.153719 V 205.1358 c 4.36803,1.19274 8.85958,2.5642 13.3568,4.26847 18.62148,3.80586 37.16676,8.0555 55.8767,11.42773 5.32688,0.28167 9.359432,-4.6004 9.341032,-9.95288 0.32867,-6.84534 -3.750332,-11.98255 -6.154662,-17.68161 -6.21586,-14.16006 -12.71027,-29.79773 -26.3462,-38.38422 -7.72218,-4.45576 -13.07673,-13.52676 -9.62422,-22.4839 1.67587,-6.72195 2.14214,-13.3459 3.96772,-20.04477 2.83302,-5.41965 9.14915,-4.87908 14.07511,-7.0342 10.84369,-3.29105 21.106,-10.111676 26.590622,-20.189463 1.1966,-1.484908 2.72777,-5.115174 4.53409,-9.166882 z" />
      <path
         id="path2643"
         style="display:inline;fill:#d0eab5;stroke-width:0.298524"
         d="m 195.8402,84.844433 c -14.61905,1.542534 -29.37514,4.694724 -42.39017,11.66027 -11.60643,6.150787 -19.13924,17.379137 -24.48481,29.021487 -4.29176,8.84787 -11.92916,15.19351 -17.68471,22.9371 -4.65178,11.81518 -0.62828,25.18706 -4.77748,37.23236 -3.26567,11.27541 -0.12937,22.78935 -0.59997,34.2315 1.13631,7.52168 -2.37224,12.90798 -9.901202,14.42341 -17.82341,0.0375 -49.12643,-2.42249 -74.20167,-3.8468 v 6.98149 c 0,7.28715 5.77107,13.15372 12.93926,13.15372 H 183.5748 c 7.1682,0 12.93875,-5.86657 12.93875,-13.15372 V 89.047794 c 0,-1.471715 -0.23861,-2.884157 -0.67335,-4.203361 z m -55.79452,90.298887 c 11.08203,1.62788 -1.17473,19.35427 -4.9413,9.2506 -0.0428,-3.57352 1.0789,-8.053 4.9413,-9.2506 z" />
      <path
         id="path2641"
         style="display:inline;fill:#f2a99a;stroke-width:0.298524"
         d="m 34.739448,75.894075 c -7.16819,0 -12.93926,5.866571 -12.93926,13.153719 v 98.128896 c 6.43649,1.35686 13.05585,2.53256 15.22491,4.08709 9.22627,5.76583 19.27342,9.95948 29.55426,13.44104 7.14372,2.62929 14.29407,5.33599 21.45296,7.84138 7.50688,2.6915 11.3143,-6.54739 5.24671,-11.32541 -6.33885,-7.35155 -10.72917,-16.09992 -16.58194,-23.84712 -3.42361,-4.63727 -7.16786,-9.80989 -13.15888,-11.3006 -10.92421,-3.79561 -23.60453,-7.24209 -30.0762,-17.69866 -2.49474,-4.86001 2.06548,-8.89471 3.43958,-13.60641 2.21029,-5.7537 4.15895,-11.67544 5.07049,-17.82734 1.22192,-5.32957 1.74115,-10.88783 1.17771,-16.28789 0.96507,-6.376494 7.83519,-10.15035 13.91026,-9.400976 10.50859,1.098202 20.71954,-4.099805 27.69753,-11.674223 0.61012,-0.327522 1.22325,-1.736681 1.73736,-3.683496 z" />
      <path
         id="path2639"
         style="display:inline;fill:#a2d3ab;stroke-width:0.298524"
         d="m 196.51355,101.18142 c -21.13985,6.91955 -43.34464,21.93371 -53.11407,40.4828 -3.77843,6.60074 -5.24837,14.85079 -1.69912,21.9506 1.90462,7.91452 11.27874,16.95042 2.06809,23.95306 -5.39764,4.6576 -11.53745,6.03304 -18.98851,2.29134 -4.73476,-2.9503 -11.68041,1.79786 -14.53244,5.52679 -4.18087,6.75759 0.55927,16.31233 -0.52348,23.90345 0.55022,8.34639 0.10749,16.38376 -6.64301,22.34541 -4.124452,3.08953 -10.445502,1.32166 -15.377352,2.12493 -15.94039,-0.2442 -43.19138,-1.75229 -65.49368,-2.96726 1.43578,5.67597 6.48576,9.84643 12.52947,9.84643 H 183.5748 c 7.1682,0 12.93875,-5.86657 12.93875,-13.15372 z" />
      <path
         id="path2637"
         style="display:inline;fill:#e99993;stroke-width:0.298524"
         d="m 34.739448,75.894075 c -7.16819,0 -12.93926,5.866571 -12.93926,13.153719 v 86.965236 c 7.00748,0.66197 14.20355,1.04492 16.72094,2.01383 6.96153,3.21459 12.4711,8.95589 19.01176,12.87622 9.0827,6.42064 19.17566,11.81898 29.08298,16.83256 4.67249,3.00933 9.46475,-1.78164 4.75785,-5.60689 -4.19791,-4.44277 -8.52807,-8.79117 -12.16205,-13.75213 -3.37491,-4.22828 -6.65794,-8.57461 -10.17251,-12.64419 -4.79833,-3.52388 -11.14146,-2.87855 -16.74626,-3.73208 -7.72947,0.43341 -15.15174,-2.5749 -22.84512,-2.17092 -4.92408,-4.27974 -2.92791,-9.50156 -3.94033,-14.00587 0.73859,-5.93616 -0.13553,-11.93902 -0.0232,-17.88521 0.63104,-6.68374 6.48554,-11.9444 6.57479,-18.76526 0.8384,-7.72964 -1.33933,-15.60743 -2.58692,-23.185668 -0.64744,-5.499519 -1.18396,-12.475392 5.25756,-14.677657 7.29668,-2.516546 14.79964,-1.440416 22.31492,-1.793689 6.56101,0.439543 14.40878,1.676906 19.44119,-3.622001 z" />
      <path
         id="path2635"
         style="display:inline;fill:#83b99e;stroke-width:0.298524"
         d="m 196.51355,111.08986 c -11.9359,4.74684 -22.07155,13.52748 -30.89217,22.60947 -6.57304,8.60596 -14.0121,17.23001 -17.11885,27.81639 -3.07363,8.57156 6.25173,15.7518 2.55178,23.84041 -4.42928,7.10103 -12.47567,11.30182 -20.52381,12.99972 -6.28912,0.88782 -19.16306,-4.57505 -18.3131,6.59133 -0.39911,9.63167 0.6848,18.87232 -0.94981,28.62151 -3.07644,6.62113 -5.92743,16.13553 -14.546912,14.41463 -17.69645,0.23258 -35.43116,0.69483 -53.10736,1.03921 -3.6888,-0.30768 -9.99225,-0.63548 -16.54989,-0.93586 2.14475,1.60445 4.7972,2.5523 7.67602,2.5523 H 183.5748 c 7.1682,0 12.93875,-5.86657 12.93875,-13.15372 z" />
      <path
         id="path2633"
         style="display:inline;fill:#7fb39a;stroke-width:0.298524"
         d="m 196.51355,119.58598 c -14.29537,9.57861 -25.93527,22.76715 -36.71042,35.97145 -4.56532,6.36282 -10.17295,14.4712 -6.10299,22.59552 3.11552,7.57945 -3.27811,13.56792 -8.86664,17.44752 -6.25387,3.63143 -11.05377,6.41424 -17.95343,7.05486 -13.32083,-1.97281 -12.68925,11.24034 -12.12587,18.80971 0.3956,10.42184 -3.42768,18.58658 -8.57053,27.10584 -6.561802,1.85901 -13.943252,1.1437 -21.001822,1.30328 -6.5253,0.22188 -13.05037,0.47076 -19.57348,0.76481 H 183.5748 c 7.1682,0 12.93875,-5.86657 12.93875,-13.15372 z" />
      <path
         id="path849"
         d="M 23.444108,191.03162 H 150.3275"
         style="display:inline;opacity:1;fill:none;stroke:#484848;stroke-width:9.02625;stroke-linecap:butt;stroke-linejoin:miter;stroke-miterlimit:4;stroke-dasharray:none;stroke-opacity:1" />
      <path
         id="path853"
         d="m 106.42473,190.71915 v 38.02242"
         style="display:inline;opacity:1;fill:none;stroke:#484848;stroke-width:9.02625;stroke-linecap:butt;stroke-linejoin:miter;stroke-miterlimit:4;stroke-dasharray:none;stroke-opacity:1" />
      <path
         id="path855"
         d="m 148.21956,151.42693 v 43.57831"
         style="display:inline;opacity:1;fill:none;stroke:#484848;stroke-width:9.02625;stroke-linecap:butt;stroke-linejoin:miter;stroke-miterlimit:4;stroke-dasharray:none;stroke-opacity:1" />
      <path
         id="path857"
         d="m 194.20821,128.92105 h -49.0893"
         style="display:inline;opacity:1;fill:none;stroke:#484848;stroke-width:9.02625;stroke-linecap:butt;stroke-linejoin:miter;stroke-miterlimit:4;stroke-dasharray:none;stroke-opacity:1" />
      <path
         id="rect2918"
         style="display:inline;opacity:1;fill:none;fill-opacity:1;stroke:#484848;stroke-width:9.02625;stroke-miterlimit:4;stroke-dasharray:none;stroke-opacity:1"
         d="m 31.872438,77.250064 c -4.82844,0 -8.71575,3.886788 -8.71575,8.715231 V 240.56775 c 0,4.82845 3.88731,8.71523 8.71575,8.71523 H 186.44181 c 4.82845,0 8.71523,-3.88678 8.71523,-8.71523 V 85.965295 c 0,-4.828443 -3.88678,-8.715231 -8.71523,-8.715231 z" />
    </g>
  </g>
</svg>
