<?xml version="1.0" encoding="UTF-8" standalone="no"?>
<svg
   xmlns:dc="http://purl.org/dc/elements/1.1/"
   xmlns:cc="http://creativecommons.org/ns#"
   xmlns:rdf="http://www.w3.org/1999/02/22-rdf-syntax-ns#"
   xmlns:svg="http://www.w3.org/2000/svg"
   xmlns="http://www.w3.org/2000/svg"
   width="196.07518mm"
   height="196.04683mm"
   viewBox="0 0 196.07518 196.04683"
   version="1.1"
   id="svg907">
  <defs
     id="defs901" />
  <metadata
     id="metadata904">
    <rdf:RDF>
      <cc:Work
         rdf:about="">
        <dc:format>image/svg+xml</dc:format>
        <dc:type
           rdf:resource="http://purl.org/dc/dcmitype/StillImage" />
        <dc:title></dc:title>
      </cc:Work>
    </rdf:RDF>
  </metadata>
  <g
     id="layer1"
     style="display:inline"
     transform="translate(-3.1301556,-3.9210751)">
    <path
       id="path2647"
       style="fill:#f7f6cf;stroke-width:0.999999"
       d="M 89.410156 40.263672 C 62.317777 40.263672 40.505859 62.436539 40.505859 89.978516 L 40.505859 651.00195 C 40.505859 678.54394 62.317777 700.7168 89.410156 700.7168 L 651.9375 700.7168 C 679.02991 700.7168 700.83984 678.54394 700.83984 651.00195 L 700.83984 89.978516 C 700.83984 62.436539 679.02991 40.263672 651.9375 40.263672 L 89.410156 40.263672 z "
       transform="matrix(0.26458333,0,0,0.26458333,3.1301556,3.9210751)" />
    <path
       id="path2645"
       style="fill:#fbcfad;stroke-width:0.999999"
       d="M 89.410156 40.263672 C 62.317777 40.263672 40.505859 62.436539 40.505859 89.978516 L 40.505859 528.73633 C 57.014974 533.24432 73.990888 538.42778 90.988281 544.86914 C 161.36868 559.25349 231.46106 575.31511 302.17578 588.06055 C 322.3089 589.12513 337.55003 570.67321 337.48047 550.44336 C 338.72268 524.57121 323.306 505.15499 314.21875 483.61523 C 290.72576 430.09687 266.17997 370.99388 214.64258 338.54102 C 185.45637 321.70034 165.21872 287.41625 178.26758 253.5625 C 184.60156 228.15671 186.36385 203.12129 193.26367 177.80273 C 203.97115 157.31904 227.84314 159.36214 246.46094 151.2168 C 287.44498 138.77819 326.23165 112.99943 346.96094 74.910156 C 351.4835 69.297905 357.27061 55.577216 364.09766 40.263672 L 89.410156 40.263672 z "
       transform="matrix(0.26458333,0,0,0.26458333,3.1301556,3.9210751)" />
    <path
       id="path2643"
       style="fill:#d0eab5;stroke-width:0.999999"
       d="M 698.29492 74.091797 C 643.04179 79.921846 587.27074 91.835635 538.08008 118.16211 C 494.21326 141.40919 465.74279 183.84702 445.53906 227.84961 C 429.31824 261.29039 400.45248 285.27392 378.69922 314.54102 C 361.11767 359.19683 376.32461 409.73618 360.64258 455.26172 C 348.29989 497.87748 360.15365 541.39471 358.375 584.64062 C 362.66971 613.06902 349.40903 633.42669 320.95312 639.1543 C 253.58907 639.29617 135.27844 629.99845 40.505859 624.61523 L 40.505859 651.00195 C 40.505859 678.54394 62.317777 700.7168 89.410156 700.7168 L 651.9375 700.7168 C 679.02991 700.7168 700.83984 678.54394 700.83984 651.00195 L 700.83984 89.978516 C 700.83984 84.41613 699.938 79.077765 698.29492 74.091797 z M 487.41797 415.37891 C 529.30281 421.53152 482.97804 488.52893 468.74219 450.3418 C 468.58042 436.83558 472.81992 419.90527 487.41797 415.37891 z "
       transform="matrix(0.26458333,0,0,0.26458333,3.1301556,3.9210751)" />
    <path
       id="path2641"
       style="fill:#f2a99a;stroke-width:0.999999"
       d="M 89.410156 40.263672 C 62.317777 40.263672 40.505859 62.436539 40.505859 89.978516 L 40.505859 460.85938 C 64.832781 465.98767 89.850836 470.43126 98.048828 476.30664 C 132.91979 498.09875 170.89327 513.94877 209.75 527.10742 C 236.74985 537.0449 263.7748 547.27495 290.83203 556.74414 C 319.20448 566.91674 333.59473 531.99811 310.66211 513.93945 C 286.70425 486.15403 270.11091 453.08935 247.99023 423.80859 C 235.05059 406.2819 220.89911 386.73184 198.25586 381.09766 C 156.96751 366.75204 109.04191 353.726 84.582031 314.20508 C 75.153123 295.83655 92.388582 280.58731 97.582031 262.7793 C 105.9359 241.03302 113.30091 218.65166 116.74609 195.40039 C 121.36438 175.25711 123.32683 154.2495 121.19727 133.83984 C 124.84477 109.73971 150.81061 95.476314 173.77148 98.308594 C 213.48899 102.45928 252.08156 82.813268 278.45508 54.185547 C 280.76104 52.947669 283.07836 47.621716 285.02148 40.263672 L 89.410156 40.263672 z "
       transform="matrix(0.26458333,0,0,0.26458333,3.1301556,3.9210751)" />
    <path
       id="path2639"
       style="fill:#a2d3ab;stroke-width:0.999999"
       d="M 700.83984 135.83789 C 620.9412 161.99053 537.01758 218.73697 500.09375 288.84375 C 485.81307 313.79144 480.25739 344.97271 493.67188 371.80664 C 500.87047 401.71979 536.30019 435.87122 501.48828 462.33789 C 481.08775 479.94142 457.88219 485.13991 429.7207 470.99805 C 411.82555 459.84731 385.57425 477.79313 374.79492 491.88672 C 358.99321 517.42722 376.90869 553.53962 372.81641 582.23047 C 374.89598 613.77588 373.22267 644.15336 347.70898 666.68555 C 332.12051 678.36251 308.2299 671.68082 289.58984 674.7168 C 229.34271 673.79384 126.34685 668.09396 42.054688 663.50195 C 47.481273 684.95443 66.567815 700.7168 89.410156 700.7168 L 651.9375 700.7168 C 679.02991 700.7168 700.83984 678.54394 700.83984 651.00195 L 700.83984 135.83789 z "
       transform="matrix(0.26458333,0,0,0.26458333,3.1301556,3.9210751)" />
    <path
       id="path2637"
       style="fill:#e99993;stroke-width:0.999999"
       d="M 89.410156 40.263672 C 62.317777 40.263672 40.505859 62.436539 40.505859 89.978516 L 40.505859 418.66602 C 66.990853 421.16794 94.188591 422.61533 103.70312 426.27734 C 130.01444 438.42698 150.838 460.12636 175.55859 474.94336 C 209.88693 499.21035 248.03353 519.61354 285.47852 538.5625 C 303.13833 549.93635 321.25082 531.82873 303.46094 517.37109 C 287.59483 500.57952 271.22887 484.14462 257.49414 465.39453 C 244.73859 449.41363 232.33026 432.98656 219.04688 417.60547 C 200.91144 404.2869 176.93741 406.72594 155.75391 403.5 C 126.54016 405.13809 98.487498 393.76807 69.410156 395.29492 C 50.799468 379.11953 58.344036 359.38352 54.517578 342.35938 C 57.309099 319.92348 54.005315 297.2355 54.429688 274.76172 C 56.814723 249.50035 78.941989 229.61754 79.279297 203.83789 C 82.448045 174.62353 74.21725 144.84919 69.501953 116.20703 C 67.054943 95.42145 65.027148 69.055943 89.373047 60.732422 C 116.95107 51.221067 145.30871 55.28833 173.71289 53.953125 C 198.51044 55.61439 228.17127 60.291039 247.19141 40.263672 L 89.410156 40.263672 z "
       transform="matrix(0.26458333,0,0,0.26458333,3.1301556,3.9210751)" />
    <path
       id="path2635"
       style="fill:#83b99e;stroke-width:0.999999"
       d="M 700.83984 173.28711 C 655.7278 191.22794 617.41983 224.4146 584.08203 258.74023 C 559.23905 291.2667 531.12291 323.86152 519.38086 363.87305 C 507.76399 396.26949 543.00945 423.40739 529.02539 453.97852 C 512.2848 480.81705 481.87325 496.69407 451.45508 503.11133 C 427.68521 506.46687 379.02775 485.8198 382.24023 528.02344 C 380.73175 564.4266 384.82844 599.35189 378.65039 636.19922 C 367.0229 661.22396 356.24749 697.18388 323.66992 690.67969 C 256.7857 691.55873 189.75689 693.30583 122.94922 694.60742 C 109.00727 693.44456 85.183228 692.20561 60.398438 691.07031 C 68.504582 697.13437 78.529584 700.7168 89.410156 700.7168 L 651.9375 700.7168 C 679.02991 700.7168 700.83984 678.54394 700.83984 651.00195 L 700.83984 173.28711 z "
       transform="matrix(0.26458333,0,0,0.26458333,3.1301556,3.9210751)" />
    <path
       id="path2633"
       style="fill:#7fb39a;stroke-width:0.999999"
       d="M 700.83984 205.39844 C 646.81012 241.60105 602.81679 291.44752 562.0918 341.35352 C 544.83704 365.40197 523.64286 396.04781 539.02539 426.75391 C 550.80058 455.40065 526.63568 478.03421 505.51367 492.69727 C 481.877 506.42236 463.73566 516.94009 437.6582 519.36133 C 387.31172 511.90504 389.69881 561.84448 391.82812 590.45312 C 393.32331 629.84276 378.87309 660.70161 359.43555 692.90039 C 334.63504 699.92657 306.73665 697.22303 280.05859 697.82617 C 255.39607 698.66479 230.73437 699.60544 206.08008 700.7168 L 651.9375 700.7168 C 679.02991 700.7168 700.83984 678.54394 700.83984 651.00195 L 700.83984 205.39844 z "
       transform="matrix(0.26458333,0,0,0.26458333,3.1301556,3.9210751)" />
    <path
       id="path849"
       d="M 15.491253,129.71171 H 142.37465"
       style="opacity:1;fill:none;stroke:#484848;stroke-width:8;stroke-linecap:butt;stroke-linejoin:miter;stroke-miterlimit:4;stroke-dasharray:none;stroke-opacity:1" />
    <path
       id="path853"
       d="m 98.471874,129.39924 v 38.02242"
       style="opacity:1;fill:none;stroke:#484848;stroke-width:8;stroke-linecap:butt;stroke-linejoin:miter;stroke-miterlimit:4;stroke-dasharray:none;stroke-opacity:1" />
    <path
       id="path855"
       d="M 140.26671,90.107026 V 133.68533"
       style="opacity:1;fill:none;stroke:#484848;stroke-width:8;stroke-linecap:butt;stroke-linejoin:miter;stroke-miterlimit:4;stroke-dasharray:none;stroke-opacity:1" />
    <path
       id="path857"
       d="m 186.25536,67.601144 h -49.0893"
       style="opacity:1;fill:none;stroke:#484848;stroke-width:8;stroke-linecap:butt;stroke-linejoin:miter;stroke-miterlimit:4;stroke-dasharray:none;stroke-opacity:1" />
    <path
       id="rect2918"
       style="display:inline;opacity:1;fill:none;fill-opacity:1;stroke:#484848;stroke-width:30.2362;stroke-miterlimit:4;stroke-dasharray:none;stroke-opacity:1"
       d="M 78.574219 45.388672 C 60.324985 45.388672 45.632812 60.078892 45.632812 78.328125 L 45.632812 662.65234 C 45.632813 680.9016 60.324985 695.5918 78.574219 695.5918 L 662.77344 695.5918 C 681.0227 695.5918 695.71289 680.9016 695.71289 662.65234 L 695.71289 78.328125 C 695.71289 60.078892 681.0227 45.388672 662.77344 45.388672 L 78.574219 45.388672 z "
       transform="matrix(0.26458333,0,0,0.26458333,3.1301556,3.9210751)" />
  </g>
  <g
     id="layer3"
     style="display:none" />
  <g
     id="layer4"
     style="display:none">
    <rect
       style="display:inline;opacity:1;fill:#c8c6a8;fill-opacity:1;stroke:none;stroke-width:7.99999;stroke-miterlimit:4;stroke-dasharray:none;stroke-opacity:1"
       id="rect2867"
       width="180.00038"
       height="180.03322"
       x="8.0738115"
       y="8.0089455"
       ry="13.153697"
       rx="12.938975" />
    <rect
       y="12.008941"
       x="12.073807"
       height="172.03323"
       width="172.0004"
       id="rect2869"
       style="display:inline;opacity:1;fill:none;fill-opacity:1;stroke:#484848;stroke-width:7.99999;stroke-miterlimit:4;stroke-dasharray:none;stroke-opacity:1"
       ry="8.7156"
       rx="8.7156" />
  </g>
</svg>
